<svg width="100" height="13" viewBox="0 0 100 13" fill="none" xmlns="http://www.w3.org/2000/svg">
<path d="M5.296 12.66C4.22933 12.66 3.344 12.5107 2.64 12.212C1.936 11.9027 1.40267 11.5027 1.04 11.012C0.677333 10.5213 0.485333 9.99867 0.464 9.444C0.464 9.35867 0.496 9.284 0.56 9.22C0.634667 9.14533 0.72 9.108 0.816 9.108H2.832C2.98133 9.108 3.09333 9.13467 3.168 9.188C3.25333 9.24133 3.328 9.31067 3.392 9.396C3.47733 9.556 3.59467 9.71067 3.744 9.86C3.904 10.0093 4.10667 10.132 4.352 10.228C4.608 10.3133 4.92267 10.356 5.296 10.356C5.91467 10.356 6.37867 10.26 6.688 10.068C7.008 9.876 7.168 9.61467 7.168 9.284C7.168 9.04933 7.08267 8.85733 6.912 8.708C6.74133 8.548 6.464 8.40933 6.08 8.292C5.70667 8.164 5.20533 8.036 4.576 7.908C3.76533 7.73733 3.072 7.51867 2.496 7.252C1.93067 6.97467 1.49867 6.61733 1.2 6.18C0.901333 5.732 0.752 5.17733 0.752 4.516C0.752 3.86533 0.933333 3.284 1.296 2.772C1.66933 2.26 2.18667 1.86 2.848 1.572C3.50933 1.284 4.29333 1.14 5.2 1.14C5.936 1.14 6.58133 1.236 7.136 1.428C7.70133 1.62 8.176 1.876 8.56 2.196C8.944 2.516 9.232 2.85733 9.424 3.22C9.62667 3.572 9.73333 3.91867 9.744 4.26C9.744 4.34533 9.712 4.42533 9.648 4.5C9.584 4.564 9.504 4.596 9.408 4.596H7.296C7.17867 4.596 7.07733 4.57467 6.992 4.532C6.90667 4.48933 6.832 4.42 6.768 4.324C6.704 4.08933 6.53333 3.88667 6.256 3.716C5.98933 3.53467 5.63733 3.444 5.2 3.444C4.73067 3.444 4.36267 3.52933 4.096 3.7C3.84 3.86 3.712 4.11067 3.712 4.452C3.712 4.66533 3.78133 4.852 3.92 5.012C4.06933 5.172 4.30933 5.31067 4.64 5.428C4.98133 5.54533 5.44533 5.668 6.032 5.796C7.00267 5.97733 7.78667 6.20667 8.384 6.484C8.98133 6.75067 9.41867 7.10267 9.696 7.54C9.97333 7.96667 10.112 8.50533 10.112 9.156C10.112 9.88133 9.904 10.5107 9.488 11.044C9.08267 11.5667 8.51733 11.9667 7.792 12.244C7.06667 12.5213 6.23467 12.66 5.296 12.66ZM11.9378 12.5C11.8204 12.5 11.7244 12.4627 11.6497 12.388C11.5751 12.3133 11.5378 12.2173 11.5378 12.1V1.54C11.5378 1.42267 11.5751 1.32667 11.6497 1.252C11.7244 1.17733 11.8204 1.14 11.9378 1.14H13.9858C14.1031 1.14 14.1991 1.17733 14.2738 1.252C14.3484 1.32667 14.3858 1.42267 14.3858 1.54V5.108C14.6738 4.77733 15.0258 4.516 15.4418 4.324C15.8684 4.12133 16.3591 4.02 16.9138 4.02C17.5324 4.02 18.0818 4.15867 18.5618 4.436C19.0524 4.71333 19.4364 5.124 19.7138 5.668C19.9911 6.20133 20.1298 6.85733 20.1298 7.636V12.1C20.1298 12.2173 20.0924 12.3133 20.0178 12.388C19.9431 12.4627 19.8471 12.5 19.7298 12.5H17.6658C17.5591 12.5 17.4631 12.4627 17.3778 12.388C17.3031 12.3133 17.2658 12.2173 17.2658 12.1V7.732C17.2658 7.23067 17.1431 6.84667 16.8978 6.58C16.6631 6.30267 16.3111 6.164 15.8418 6.164C15.4044 6.164 15.0524 6.30267 14.7858 6.58C14.5191 6.84667 14.3858 7.23067 14.3858 7.732V12.1C14.3858 12.2173 14.3484 12.3133 14.2738 12.388C14.1991 12.4627 14.1031 12.5 13.9858 12.5H11.9378ZM24.44 12.66C23.864 12.66 23.3467 12.5533 22.888 12.34C22.44 12.116 22.0827 11.8173 21.816 11.444C21.5493 11.0707 21.416 10.6493 21.416 10.18C21.416 9.42267 21.7253 8.82533 22.344 8.388C22.9627 7.94 23.784 7.636 24.808 7.476L26.808 7.172V6.948C26.808 6.564 26.728 6.27067 26.568 6.068C26.408 5.86533 26.1147 5.764 25.688 5.764C25.3893 5.764 25.144 5.82267 24.952 5.94C24.7707 6.05733 24.6267 6.21733 24.52 6.42C24.424 6.55867 24.2907 6.628 24.12 6.628H22.328C22.2107 6.628 22.12 6.596 22.056 6.532C21.992 6.45733 21.9653 6.372 21.976 6.276C21.976 6.084 22.0453 5.86533 22.184 5.62C22.3333 5.364 22.5573 5.11333 22.856 4.868C23.1547 4.62267 23.5387 4.42 24.008 4.26C24.4773 4.1 25.0427 4.02 25.704 4.02C26.3973 4.02 26.9893 4.1 27.48 4.26C27.9707 4.42 28.3653 4.644 28.664 4.932C28.9733 5.22 29.2027 5.56133 29.352 5.956C29.5013 6.34 29.576 6.76667 29.576 7.236V12.1C29.576 12.2173 29.5333 12.3133 29.448 12.388C29.3733 12.4627 29.2827 12.5 29.176 12.5H27.32C27.2027 12.5 27.1067 12.4627 27.032 12.388C26.9573 12.3133 26.92 12.2173 26.92 12.1V11.54C26.7813 11.7427 26.5947 11.9293 26.36 12.1C26.1253 12.2707 25.848 12.404 25.528 12.5C25.2187 12.6067 24.856 12.66 24.44 12.66ZM25.192 10.836C25.5013 10.836 25.7787 10.772 26.024 10.644C26.28 10.5053 26.4773 10.2973 26.616 10.02C26.7653 9.732 26.84 9.37467 26.84 8.948V8.724L25.48 8.964C24.9787 9.04933 24.6107 9.18267 24.376 9.364C24.152 9.53467 24.04 9.73733 24.04 9.972C24.04 10.1533 24.0933 10.308 24.2 10.436C24.3067 10.564 24.4453 10.6653 24.616 10.74C24.7867 10.804 24.9787 10.836 25.192 10.836ZM31.7815 12.5C31.6642 12.5 31.5682 12.4627 31.4935 12.388C31.4188 12.3133 31.3815 12.2173 31.3815 12.1V4.58C31.3815 4.47333 31.4188 4.38267 31.4935 4.308C31.5682 4.22267 31.6642 4.18 31.7815 4.18H33.6215C33.7388 4.18 33.8348 4.22267 33.9095 4.308C33.9842 4.38267 34.0215 4.47333 34.0215 4.58V5.22C34.3095 4.88933 34.6508 4.63333 35.0455 4.452C35.4508 4.27067 35.9042 4.18 36.4055 4.18H37.1095C37.2162 4.18 37.3068 4.21733 37.3815 4.292C37.4668 4.36667 37.5095 4.46267 37.5095 4.58V6.228C37.5095 6.33467 37.4668 6.43067 37.3815 6.516C37.3068 6.59067 37.2162 6.628 37.1095 6.628H35.5575C35.1202 6.628 34.7788 6.75067 34.5335 6.996C34.2988 7.23067 34.1815 7.56667 34.1815 8.004V12.1C34.1815 12.2173 34.1388 12.3133 34.0535 12.388C33.9788 12.4627 33.8828 12.5 33.7655 12.5H31.7815ZM39.0471 12.5C38.9298 12.5 38.8338 12.4627 38.7591 12.388C38.6845 12.3133 38.6471 12.2173 38.6471 12.1V4.58C38.6471 4.46267 38.6845 4.36667 38.7591 4.292C38.8338 4.21733 38.9298 4.18 39.0471 4.18H40.9351C41.0418 4.18 41.1325 4.21733 41.2071 4.292C41.2925 4.36667 41.3351 4.46267 41.3351 4.58V12.1C41.3351 12.2173 41.2925 12.3133 41.2071 12.388C41.1325 12.4627 41.0418 12.5 40.9351 12.5H39.0471ZM39.0311 2.98C38.9138 2.98 38.8178 2.94267 38.7431 2.868C38.6685 2.79333 38.6311 2.69733 38.6311 2.58V1.156C38.6311 1.03867 38.6685 0.942666 38.7431 0.867999C38.8178 0.782666 38.9138 0.74 39.0311 0.74H40.9351C41.0525 0.74 41.1485 0.782666 41.2231 0.867999C41.3085 0.942666 41.3511 1.03867 41.3511 1.156V2.58C41.3511 2.69733 41.3085 2.79333 41.2231 2.868C41.1485 2.94267 41.0525 2.98 40.9351 2.98H39.0311ZM45.7056 12.66C45.1296 12.66 44.6123 12.5533 44.1536 12.34C43.7056 12.116 43.3483 11.8173 43.0816 11.444C42.815 11.0707 42.6816 10.6493 42.6816 10.18C42.6816 9.42267 42.991 8.82533 43.6096 8.388C44.2283 7.94 45.0496 7.636 46.0736 7.476L48.0736 7.172V6.948C48.0736 6.564 47.9936 6.27067 47.8336 6.068C47.6736 5.86533 47.3803 5.764 46.9536 5.764C46.655 5.764 46.4096 5.82267 46.2176 5.94C46.0363 6.05733 45.8923 6.21733 45.7856 6.42C45.6896 6.55867 45.5563 6.628 45.3856 6.628H43.5936C43.4763 6.628 43.3856 6.596 43.3216 6.532C43.2576 6.45733 43.231 6.372 43.2416 6.276C43.2416 6.084 43.311 5.86533 43.4496 5.62C43.599 5.364 43.823 5.11333 44.1216 4.868C44.4203 4.62267 44.8043 4.42 45.2736 4.26C45.743 4.1 46.3083 4.02 46.9696 4.02C47.663 4.02 48.255 4.1 48.7456 4.26C49.2363 4.42 49.631 4.644 49.9296 4.932C50.239 5.22 50.4683 5.56133 50.6176 5.956C50.767 6.34 50.8416 6.76667 50.8416 7.236V12.1C50.8416 12.2173 50.799 12.3133 50.7136 12.388C50.639 12.4627 50.5483 12.5 50.4416 12.5H48.5856C48.4683 12.5 48.3723 12.4627 48.2976 12.388C48.223 12.3133 48.1856 12.2173 48.1856 12.1V11.54C48.047 11.7427 47.8603 11.9293 47.6256 12.1C47.391 12.2707 47.1136 12.404 46.7936 12.5C46.4843 12.6067 46.1216 12.66 45.7056 12.66ZM46.4576 10.836C46.767 10.836 47.0443 10.772 47.2896 10.644C47.5456 10.5053 47.743 10.2973 47.8816 10.02C48.031 9.732 48.1056 9.37467 48.1056 8.948V8.724L46.7456 8.964C46.2443 9.04933 45.8763 9.18267 45.6416 9.364C45.4176 9.53467 45.3056 9.73733 45.3056 9.972C45.3056 10.1533 45.359 10.308 45.4656 10.436C45.5723 10.564 45.711 10.6653 45.8816 10.74C46.0523 10.804 46.2443 10.836 46.4576 10.836ZM53.0471 12.5C52.9298 12.5 52.8338 12.4627 52.7591 12.388C52.6845 12.3133 52.6471 12.2173 52.6471 12.1V1.54C52.6471 1.42267 52.6845 1.32667 52.7591 1.252C52.8338 1.17733 52.9298 1.14 53.0471 1.14H55.0951C55.2125 1.14 55.3085 1.17733 55.3831 1.252C55.4578 1.32667 55.4951 1.42267 55.4951 1.54V5.108C55.7831 4.77733 56.1351 4.516 56.5511 4.324C56.9778 4.12133 57.4685 4.02 58.0231 4.02C58.6418 4.02 59.1911 4.15867 59.6711 4.436C60.1618 4.71333 60.5458 5.124 60.8231 5.668C61.1005 6.20133 61.2391 6.85733 61.2391 7.636V12.1C61.2391 12.2173 61.2018 12.3133 61.1271 12.388C61.0525 12.4627 60.9565 12.5 60.8391 12.5H58.7751C58.6685 12.5 58.5725 12.4627 58.4871 12.388C58.4125 12.3133 58.3751 12.2173 58.3751 12.1V7.732C58.3751 7.23067 58.2525 6.84667 58.0071 6.58C57.7725 6.30267 57.4205 6.164 56.9511 6.164C56.5138 6.164 56.1618 6.30267 55.8951 6.58C55.6285 6.84667 55.4951 7.23067 55.4951 7.732V12.1C55.4951 12.2173 55.4578 12.3133 55.3831 12.388C55.3085 12.4627 55.2125 12.5 55.0951 12.5H53.0471ZM63.6294 12.5C63.512 12.5 63.416 12.4627 63.3414 12.388C63.2667 12.3133 63.2294 12.2173 63.2294 12.1V1.7C63.2294 1.58267 63.2667 1.48667 63.3414 1.412C63.416 1.33733 63.512 1.3 63.6294 1.3H65.7414C65.848 1.3 65.9387 1.33733 66.0134 1.412C66.0987 1.48667 66.1414 1.58267 66.1414 1.7V10.084H70.9734C71.0907 10.084 71.1867 10.1267 71.2614 10.212C71.3467 10.2867 71.3894 10.3827 71.3894 10.5V12.1C71.3894 12.2173 71.3467 12.3133 71.2614 12.388C71.1867 12.4627 71.0907 12.5 70.9734 12.5H63.6294ZM75.0963 12.66C74.5203 12.66 74.0029 12.5533 73.5443 12.34C73.0963 12.116 72.7389 11.8173 72.4723 11.444C72.2056 11.0707 72.0723 10.6493 72.0723 10.18C72.0723 9.42267 72.3816 8.82533 73.0003 8.388C73.6189 7.94 74.4403 7.636 75.4643 7.476L77.4643 7.172V6.948C77.4643 6.564 77.3843 6.27067 77.2243 6.068C77.0643 5.86533 76.7709 5.764 76.3443 5.764C76.0456 5.764 75.8003 5.82267 75.6083 5.94C75.4269 6.05733 75.2829 6.21733 75.1763 6.42C75.0803 6.55867 74.9469 6.628 74.7763 6.628H72.9843C72.8669 6.628 72.7763 6.596 72.7122 6.532C72.6483 6.45733 72.6216 6.372 72.6323 6.276C72.6323 6.084 72.7016 5.86533 72.8403 5.62C72.9896 5.364 73.2136 5.11333 73.5123 4.868C73.8109 4.62267 74.1949 4.42 74.6643 4.26C75.1336 4.1 75.6989 4.02 76.3602 4.02C77.0536 4.02 77.6456 4.1 78.1363 4.26C78.6269 4.42 79.0216 4.644 79.3203 4.932C79.6296 5.22 79.8589 5.56133 80.0083 5.956C80.1576 6.34 80.2323 6.76667 80.2323 7.236V12.1C80.2323 12.2173 80.1896 12.3133 80.1042 12.388C80.0296 12.4627 79.9389 12.5 79.8323 12.5H77.9763C77.8589 12.5 77.7629 12.4627 77.6883 12.388C77.6136 12.3133 77.5763 12.2173 77.5763 12.1V11.54C77.4376 11.7427 77.2509 11.9293 77.0163 12.1C76.7816 12.2707 76.5043 12.404 76.1843 12.5C75.8749 12.6067 75.5123 12.66 75.0963 12.66ZM75.8483 10.836C76.1576 10.836 76.4349 10.772 76.6803 10.644C76.9363 10.5053 77.1336 10.2973 77.2723 10.02C77.4216 9.732 77.4963 9.37467 77.4963 8.948V8.724L76.1363 8.964C75.6349 9.04933 75.2669 9.18267 75.0323 9.364C74.8083 9.53467 74.6963 9.73733 74.6963 9.972C74.6963 10.1533 74.7496 10.308 74.8563 10.436C74.9629 10.564 75.1016 10.6653 75.2723 10.74C75.4429 10.804 75.6349 10.836 75.8483 10.836ZM87.1258 12.66C86.5284 12.66 86.0271 12.5587 85.6218 12.356C85.2271 12.1533 84.9018 11.8973 84.6458 11.588V12.1C84.6458 12.2173 84.6031 12.3133 84.5178 12.388C84.4431 12.4627 84.3524 12.5 84.2458 12.5H82.4378C82.3204 12.5 82.2244 12.4627 82.1497 12.388C82.0751 12.3133 82.0378 12.2173 82.0378 12.1V1.54C82.0378 1.42267 82.0751 1.32667 82.1497 1.252C82.2244 1.17733 82.3204 1.14 82.4378 1.14H84.3898C84.5071 1.14 84.6031 1.17733 84.6778 1.252C84.7524 1.32667 84.7898 1.42267 84.7898 1.54V4.964C85.0458 4.68667 85.3658 4.46267 85.7498 4.292C86.1444 4.11067 86.6031 4.02 87.1258 4.02C87.6591 4.02 88.1284 4.11067 88.5338 4.292C88.9498 4.46267 89.3018 4.71333 89.5898 5.044C89.8778 5.37467 90.1018 5.76933 90.2618 6.228C90.4218 6.68667 90.5124 7.204 90.5338 7.78C90.5444 7.98267 90.5498 8.16933 90.5498 8.34C90.5498 8.5 90.5444 8.68667 90.5338 8.9C90.5124 9.49733 90.4164 10.0307 90.2458 10.5C90.0858 10.9587 89.8618 11.3533 89.5738 11.684C89.2858 12.004 88.9391 12.2493 88.5338 12.42C88.1284 12.58 87.6591 12.66 87.1258 12.66ZM86.2618 10.516C86.6244 10.516 86.9071 10.4413 87.1098 10.292C87.3124 10.1427 87.4564 9.94 87.5418 9.684C87.6378 9.428 87.6964 9.14533 87.7178 8.836C87.7391 8.50533 87.7391 8.17467 87.7178 7.844C87.6964 7.53467 87.6378 7.252 87.5418 6.996C87.4564 6.74 87.3124 6.53733 87.1098 6.388C86.9071 6.23867 86.6244 6.164 86.2618 6.164C85.9311 6.164 85.6591 6.23867 85.4458 6.388C85.2324 6.52667 85.0724 6.71333 84.9658 6.948C84.8591 7.172 84.8004 7.41733 84.7898 7.684C84.7791 7.88667 84.7738 8.084 84.7738 8.276C84.7738 8.468 84.7791 8.67067 84.7898 8.884C84.8004 9.172 84.8538 9.43867 84.9498 9.684C85.0458 9.92933 85.2004 10.132 85.4138 10.292C85.6271 10.4413 85.9098 10.516 86.2618 10.516ZM95.5555 12.66C94.8622 12.66 94.2702 12.5853 93.7795 12.436C93.2995 12.276 92.9048 12.084 92.5955 11.86C92.2968 11.636 92.0728 11.4067 91.9235 11.172C91.7742 10.9267 91.6942 10.7187 91.6835 10.548C91.6728 10.4307 91.7102 10.3347 91.7955 10.26C91.8808 10.1747 91.9715 10.132 92.0675 10.132H93.8915C93.9235 10.132 93.9502 10.1373 93.9715 10.148C93.9928 10.1587 94.0248 10.18 94.0675 10.212C94.2062 10.2867 94.3448 10.3827 94.4835 10.5C94.6222 10.6067 94.7822 10.7027 94.9635 10.788C95.1448 10.8733 95.3635 10.916 95.6195 10.916C95.9182 10.916 96.1688 10.8573 96.3715 10.74C96.5742 10.6227 96.6755 10.4467 96.6755 10.212C96.6755 10.0413 96.6275 9.90267 96.5315 9.796C96.4355 9.67867 96.2382 9.56667 95.9395 9.46C95.6515 9.35333 95.2142 9.24667 94.6275 9.14C94.0728 9.012 93.5875 8.84667 93.1715 8.644C92.7555 8.43067 92.4355 8.15867 92.2115 7.828C91.9875 7.48667 91.8755 7.076 91.8755 6.596C91.8755 6.16933 92.0142 5.75867 92.2915 5.364C92.5688 4.96933 92.9742 4.64933 93.5075 4.404C94.0408 4.148 94.6968 4.02 95.4755 4.02C96.0942 4.02 96.6275 4.09467 97.0755 4.244C97.5342 4.38267 97.9182 4.564 98.2275 4.788C98.5475 5.012 98.7875 5.24133 98.9475 5.476C99.1075 5.71067 99.1928 5.924 99.2035 6.116C99.2142 6.22267 99.1822 6.31867 99.1075 6.404C99.0328 6.47867 98.9475 6.516 98.8515 6.516H97.1875C97.1448 6.516 97.1022 6.51067 97.0595 6.5C97.0168 6.47867 96.9795 6.45733 96.9475 6.436C96.8195 6.372 96.6915 6.28667 96.5635 6.18C96.4355 6.07333 96.2862 5.97733 96.1155 5.892C95.9448 5.80667 95.7315 5.764 95.4755 5.764C95.1875 5.764 94.9635 5.828 94.8035 5.956C94.6435 6.084 94.5635 6.24933 94.5635 6.452C94.5635 6.59067 94.6062 6.71867 94.6915 6.836C94.7875 6.95333 94.9742 7.06 95.2515 7.156C95.5395 7.252 95.9822 7.35867 96.5795 7.476C97.3155 7.59333 97.9022 7.78533 98.3395 8.052C98.7768 8.308 99.0862 8.612 99.2675 8.964C99.4488 9.30533 99.5395 9.668 99.5395 10.052C99.5395 10.564 99.3848 11.0173 99.0755 11.412C98.7768 11.8067 98.3288 12.116 97.7315 12.34C97.1342 12.5533 96.4088 12.66 95.5555 12.66Z" fill="#F6BE4A"/>
</svg>
