<svg width="108" height="40" viewBox="0 0 108 40" fill="none" xmlns="http://www.w3.org/2000/svg">
<g clip-path="url(#clip0_885_2186)">
<path fill-rule="evenodd" clip-rule="evenodd" d="M24.4934 15.6319C25.0201 16.2256 25.8707 19.0687 26.3808 20.2329L26.7446 20.7854C26.6649 19.824 25.1929 16.3526 24.7526 15.2807C25.1115 14.781 25.4238 14.7513 25.4637 13.9812C25.1762 13.1435 23.6394 13.5937 23.9634 14.3654C23.98 14.4067 24.0631 14.5765 24.0864 14.6276L24.2508 15.002C22.1409 14.4891 21.9415 12.4294 17.8561 11.9347C18.3412 10.0003 18.2017 11.0557 17.7514 9.3802L18.9991 8.7519C17.4673 9.1048 16.3475 8.75849 16.1216 7.35181C15.8491 5.64829 17.0403 5.39268 18.1784 5.03647C15.2493 4.65058 14.9303 7.28914 15.7727 8.47979C16.2578 9.16582 16.5502 8.95309 17.2513 9.3802C17.0785 9.91121 16.8277 9.99037 16.7695 10.5098C16.7047 11.0804 16.9938 11.435 17.1251 12.0072C15.2892 12.0386 13.2573 13.0181 12.1325 14.0373C11.4862 14.6243 11.566 14.8354 10.5625 15.0201C10.5874 14.9591 10.6339 14.8123 10.6456 14.8404C10.6589 14.8717 10.7552 14.6227 10.7752 14.4941C10.8632 13.9631 10.8699 14.3852 10.7253 13.8377C10.1206 13.5046 9.96439 13.5129 9.32974 13.8113C9.19848 14.6573 9.15861 14.4446 9.72183 15.0581L9.90957 15.2708C9.40782 17.0749 9.25996 16.0195 9.68362 16.8424L10.0292 15.5346C10.4346 16.0046 10.732 16.8985 10.9513 17.4954L13.3221 23.6812L7.25796 23.7769C6.75954 23.4817 7.20646 23.8775 6.69142 23.2656C6.48374 23.8445 6.70803 23.5757 6.05842 23.8791C6.03184 23.8923 5.96871 23.9038 5.92883 23.9253C7.13335 25.9124 12.3186 26.1615 14.3057 23.9253C14.2674 23.9055 14.2076 23.8395 14.1894 23.8742L13.5314 23.5575L10.3714 15.3137C13.4666 15.2807 13.0131 12.9571 16.7463 13.714C16.095 16.8968 15.3507 16.1366 16.9789 19.1396C16.6383 21.4516 14.412 22.8929 16.4871 24.3194C14.4585 25.5233 15.992 26.2818 16.5186 26.6991C14.1578 27.5698 11.0792 25.1357 11.2719 28.0332L23.6511 28.0497C23.9368 24.7944 20.1937 27.8815 18.4359 26.6875C18.6353 26.5144 20.619 25.2561 18.4858 24.3953C20.5559 23.01 18.3246 21.262 17.9425 19.1396C18.5223 18.2408 18.9875 18.0627 18.8662 16.5785C18.7765 15.4654 18.3246 14.6887 18.1385 13.6134C21.4165 12.9901 21.3999 15.1537 24.3306 15.2658L21.0692 23.6218L20.3183 23.8643C20.6273 24.5998 20.5359 24.5272 22.0113 25.106C22.8204 25.4227 23.5763 25.5546 24.505 25.5249C26.63 25.4589 27.4906 24.9428 28.7067 23.9269L28.0804 23.6466C27.6999 23.4586 27.0636 21.2273 26.8742 20.7145C26.5968 21.4615 26.8127 21.3461 27.1467 22.2284C27.3627 22.7989 27.5803 23.2393 27.7365 23.8098L21.2952 23.7868C22.1226 21.257 23.4733 18.2144 24.4884 15.6369L24.4934 15.6319ZM9.48425 16.7451C9.08551 17.2266 9.01407 17.5977 8.76652 18.2441C8.31129 19.4315 6.96223 22.5796 6.90574 23.3679C6.95724 23.3201 6.99546 23.3844 7.15661 23.0991L8.28637 20.167C8.67182 19.1429 9.4261 17.7428 9.48259 16.7434L9.48425 16.7451ZM16.8775 12.591C16.9523 12.5795 16.7296 12.1194 17.6152 12.4756C18.2482 12.7295 17.6982 13.3133 17.6982 13.3133C17.2065 13.6431 17.3959 13.4634 17.0287 13.3001L16.8775 12.591Z" fill="#601404"/>
<path fill-rule="evenodd" clip-rule="evenodd" d="M19.0822 6.55359C18.7716 6.65088 18.4808 6.82404 18.3097 6.87351L19.1886 7.06481L19.4162 7.82834L19.7036 7.21488L20.6905 7.05162L20.1588 6.69706L20.3532 5.60535C20.0691 5.82798 20.0077 5.8791 19.7269 6.03412C19.3863 5.88735 19.1736 5.7076 18.8796 5.59546L19.0822 6.55359Z" fill="#601404"/>
<path fill-rule="evenodd" clip-rule="evenodd" d="M10.3285 2.07952L22.7874 2.03994L22.7475 0.131928L9.531 0C-1.74331 7.10433 -0.229771 18.1187 3.05816 25.5116C4.53349 28.8296 6.25969 32.2152 7.13525 31.9283L7.14522 31.925L9.55758 31.7386C9.73535 31.7254 9.8882 31.4038 9.19041 30.9338C5.55027 28.4849 -2.9578 8.49947 10.3268 2.07952H10.3285Z" fill="#DD9701"/>
<path fill-rule="evenodd" clip-rule="evenodd" d="M24.5683 2.07952L12.1094 2.03994L12.1493 0.131928L25.3658 0C36.6401 7.10433 35.1266 18.1187 31.8386 25.5116C30.3633 28.8296 28.6371 32.2152 27.7615 31.9283L27.7516 31.925L25.3392 31.7386C25.1614 31.7254 25.0086 31.4038 25.7064 30.9338C29.3465 28.4849 37.8546 8.49947 24.57 2.07952H24.5683Z" fill="#DD9701"/>
<path fill-rule="evenodd" clip-rule="evenodd" d="M12.6021 35.8185H23.5325C25.3302 35.8185 25.9765 35.5035 25.7273 33.6598C23.7867 32.7891 14.8035 33.2145 12.1303 33.2145C9.55179 33.2145 9.1896 35.8185 12.6021 35.8185Z" fill="#DD9701"/>
<path fill-rule="evenodd" clip-rule="evenodd" d="M12.6069 38.324C13.3509 40.5407 14.9254 39.9041 17.8477 39.9007C20.8587 39.8955 22.7897 40.6014 23.5522 38.324C22.2085 36.5253 20.533 37.1376 15.0429 37.1376C13.7116 37.1376 12.982 37.3474 12.6069 38.324Z" fill="#DD9701"/>
</g>
<path d="M46.6859 32.4858L52.268 31.2793C52.316 31.2673 52.37 31.2793 52.43 31.3153C52.478 31.3513 52.5021 31.3994 52.5021 31.4594V34.3945C52.5021 34.5265 52.436 34.5925 52.304 34.5925H42.9045C42.8325 34.5925 42.7785 34.5625 42.7425 34.5025C42.7065 34.4545 42.7005 34.4005 42.7245 34.3404L43.2287 33.08V23.5185L42.7245 22.258C42.7005 22.198 42.7065 22.144 42.7425 22.0959C42.7785 22.0359 42.8325 22.0059 42.9045 22.0059H47.01C47.0821 22.0059 47.1361 22.0359 47.1721 22.0959C47.2081 22.144 47.2141 22.198 47.1901 22.258L46.6859 23.5185V32.4858ZM63.1629 34.3584C63.187 34.4185 63.181 34.4725 63.1449 34.5205C63.1089 34.5805 63.0609 34.6105 63.0009 34.6105H59.4176C59.2855 34.6105 59.2195 34.5445 59.2195 34.4125V33.8543C58.7753 34.1904 58.3012 34.4365 57.797 34.5925C57.2928 34.7366 56.7526 34.8086 56.1764 34.8086C55.8643 34.8086 55.5522 34.7786 55.24 34.7186C54.9399 34.6586 54.6578 34.5625 54.3937 34.4305C54.1296 34.2864 53.8895 34.1124 53.6735 33.9083C53.4574 33.6922 53.2893 33.4341 53.1693 33.134C52.9172 32.5218 52.8872 31.9095 53.0792 31.2973C53.2713 30.6851 53.5834 30.1509 54.0156 29.6947C54.3397 29.3586 54.7058 29.0765 55.114 28.8484C55.5221 28.6083 55.9483 28.4163 56.3925 28.2722C56.8486 28.1282 57.3108 28.0261 57.779 27.9661C58.2591 27.8941 58.7273 27.8581 59.1835 27.8581H59.2375C59.2255 27.69 59.1895 27.5279 59.1295 27.3719C59.0814 27.2158 58.9854 27.0898 58.8414 26.9937C58.5412 26.8137 58.2051 26.7356 57.833 26.7597C57.4729 26.7717 57.1067 26.8437 56.7346 26.9757C56.3624 27.1078 56.0023 27.2758 55.6542 27.4799C55.3181 27.672 55.024 27.8581 54.7719 28.0381C54.7118 28.0741 54.6578 28.0861 54.6098 28.0741C54.5498 28.0621 54.5138 28.0261 54.5018 27.9661L53.7095 26.3275C53.6855 26.2795 53.6855 26.2255 53.7095 26.1654C53.7215 26.1174 53.7575 26.0814 53.8175 26.0574C54.2617 25.8653 54.7839 25.7033 55.3841 25.5712C55.9963 25.4392 56.6325 25.3611 57.2928 25.3371C57.953 25.3011 58.6013 25.3311 59.2375 25.4272C59.8857 25.5232 60.462 25.7033 60.9661 25.9674C61.4823 26.2315 61.8965 26.5916 62.2086 27.0478C62.5327 27.5039 62.6948 28.0741 62.6948 28.7584V33.08L63.1629 34.3584ZM59.2195 29.4426C58.4632 29.5147 57.839 29.8328 57.3468 30.397C57.1427 30.6251 56.9747 30.8892 56.8426 31.1893C56.7106 31.4894 56.6566 31.7955 56.6806 32.1076C56.6926 32.2397 56.7226 32.3597 56.7706 32.4678C56.8186 32.5758 56.8966 32.6658 57.0047 32.7378C57.2088 32.8699 57.4368 32.9119 57.6889 32.8639C57.953 32.8159 58.1751 32.7318 58.3552 32.6118C58.6433 32.4197 58.8594 32.1796 59.0034 31.8915C59.1475 31.5914 59.2195 31.2673 59.2195 30.9192V29.4426ZM64.6424 24.2747L64.0302 23.2664C63.9942 23.2184 63.9882 23.1643 64.0122 23.1043C64.0242 23.0563 64.0602 23.0203 64.1202 22.9963L64.7505 22.7982L67.8116 21.9699C67.8596 21.9579 67.9136 21.9699 67.9737 22.0059C68.0217 22.0419 68.0457 22.0899 68.0457 22.15V26.3455C68.4058 26.0094 68.802 25.7633 69.2341 25.6072C69.6783 25.4392 70.1525 25.3431 70.6566 25.3191C71.0648 25.3071 71.4789 25.3431 71.8991 25.4272C72.3793 25.5472 72.8234 25.7393 73.2316 26.0034C73.6397 26.2555 73.9999 26.5736 74.312 26.9577C74.6601 27.3779 74.9122 27.8461 75.0683 28.3622C75.2363 28.8664 75.3204 29.3946 75.3204 29.9468C75.3204 30.475 75.2303 30.9912 75.0503 31.4954C74.8822 31.9876 74.6421 32.4437 74.33 32.8639C74.0299 33.272 73.6637 33.6322 73.2316 33.9443C72.8114 34.2444 72.3493 34.4665 71.8451 34.6105C71.4609 34.7186 71.0708 34.7726 70.6747 34.7726C70.2425 34.7606 69.7863 34.6706 69.3061 34.5025C68.826 34.3344 68.3998 34.1124 68.0277 33.8363V34.3945C68.0277 34.5265 67.9617 34.5925 67.8296 34.5925H64.2463C64.1863 34.5925 64.1383 34.5625 64.1022 34.5025C64.0662 34.4545 64.0602 34.4005 64.0842 34.3404L64.5884 33.08L64.6424 24.2747ZM71.719 31.8195C71.8151 31.4954 71.8571 31.1593 71.8451 30.8111C71.8331 30.463 71.7911 30.1269 71.719 29.8028C71.647 29.4907 71.539 29.1785 71.3949 28.8664C71.2629 28.5423 71.0828 28.2602 70.8547 28.0201C70.6987 27.8521 70.5126 27.708 70.2965 27.588C70.0924 27.4559 69.8704 27.3899 69.6303 27.3899C69.5702 27.3899 69.4802 27.4019 69.3602 27.4259C69.1321 27.4859 68.94 27.582 68.784 27.714C68.5919 27.8821 68.4478 28.0861 68.3518 28.3262C68.2558 28.5543 68.1897 28.8064 68.1537 29.0825C68.1297 29.3466 68.1297 29.6167 68.1537 29.8928C68.1777 30.1569 68.2137 30.397 68.2618 30.6131C68.3098 30.8291 68.3818 31.0692 68.4778 31.3333C68.5739 31.5854 68.6939 31.8255 68.838 32.0536C68.982 32.2817 69.1441 32.4858 69.3242 32.6658C69.5162 32.8339 69.7323 32.9539 69.9724 33.026C70.1885 33.086 70.4046 33.086 70.6206 33.026C70.6807 33.014 70.7707 32.9839 70.8907 32.9359C71.1068 32.8279 71.2809 32.6718 71.4129 32.4678C71.545 32.2637 71.641 32.0476 71.701 31.8195H71.719ZM83.6439 26.3815C83.6559 26.4415 83.6439 26.4896 83.6079 26.5256L82.3114 28.3622C82.2754 28.4103 82.2274 28.4343 82.1674 28.4343C82.1073 28.4343 82.0593 28.4163 82.0233 28.3803C81.8793 28.2362 81.7052 28.0741 81.5011 27.8941C81.309 27.702 81.099 27.5219 80.8709 27.3539C80.6548 27.1738 80.4327 27.0238 80.2046 26.9037C79.9766 26.7837 79.7545 26.7236 79.5384 26.7236C79.3223 26.7236 79.1663 26.7657 79.0702 26.8497C78.9742 26.9217 78.9262 27.0178 78.9262 27.1378C78.9262 27.2578 78.9682 27.3839 79.0522 27.5159C79.1363 27.636 79.2503 27.744 79.3943 27.8401C79.5504 27.9361 79.7125 28.0261 79.8805 28.1102C80.0606 28.1942 80.2347 28.2722 80.4027 28.3442C80.6068 28.4403 80.8109 28.5363 81.0149 28.6323C81.219 28.7164 81.4231 28.8064 81.6272 28.9024C81.9153 29.0465 82.1914 29.2086 82.4555 29.3886C82.7316 29.5567 82.9777 29.7548 83.1937 29.9828C83.4098 30.2109 83.5779 30.463 83.6979 30.7391C83.83 31.0152 83.896 31.3333 83.896 31.6935C83.896 32.2937 83.7639 32.7979 83.4999 33.206C83.2358 33.6022 82.8936 33.9203 82.4735 34.1604C82.0533 34.4005 81.5791 34.5685 81.051 34.6646C80.5348 34.7726 80.0246 34.8266 79.5204 34.8266C78.8481 34.8266 78.1879 34.7306 77.5397 34.5385C76.9034 34.3344 76.2972 34.0583 75.721 33.7102C75.673 33.6622 75.643 33.6202 75.631 33.5842C75.607 33.5361 75.619 33.4881 75.667 33.4401L77.0895 31.4414C77.1255 31.3934 77.1735 31.3693 77.2336 31.3693C77.2936 31.3693 77.3416 31.3874 77.3776 31.4234C77.7017 31.7475 78.0378 32.0776 78.386 32.4137C78.7461 32.7378 79.1302 33.0079 79.5384 33.224C79.7305 33.3321 79.9586 33.4041 80.2226 33.4401C80.3187 33.4521 80.4327 33.4581 80.5648 33.4581C80.6968 33.4581 80.8169 33.4461 80.9249 33.4221C81.045 33.3861 81.147 33.3321 81.231 33.26C81.3151 33.176 81.3571 33.062 81.3571 32.9179C81.3571 32.8339 81.3271 32.7499 81.267 32.6658C81.207 32.5818 81.135 32.5038 81.051 32.4317C80.9669 32.3597 80.8769 32.2997 80.7809 32.2517C80.6968 32.1916 80.6248 32.1436 80.5648 32.1076C80.4207 32.0236 80.2707 31.9456 80.1146 31.8735C79.9706 31.8015 79.8205 31.7295 79.6644 31.6575L78.6381 31.1713C78.482 31.0872 78.326 31.0092 78.1699 30.9372C78.0258 30.8532 77.8818 30.7631 77.7377 30.6671C77.5217 30.535 77.3116 30.385 77.1075 30.2169C76.9034 30.0489 76.7234 29.8628 76.5673 29.6587C76.3752 29.3946 76.2552 29.1245 76.2072 28.8484C76.1472 28.5243 76.1532 28.2002 76.2252 27.8761C76.3092 27.5399 76.4353 27.2338 76.6033 26.9577C76.8074 26.6216 77.0595 26.3395 77.3596 26.1114C77.7557 25.8113 78.1999 25.6132 78.6921 25.5172C79.1963 25.4212 79.6885 25.3731 80.1686 25.3731C80.7929 25.3731 81.3631 25.4392 81.8793 25.5712C82.3954 25.6913 82.9296 25.9013 83.4818 26.2015C83.5299 26.2255 83.5659 26.2615 83.5899 26.3095L83.6439 26.3815Z" fill="#601404"/>
<path d="M51.6339 6.64283C51.6459 6.70285 51.6339 6.75087 51.5979 6.78688L49.7972 9.34382C49.7612 9.40384 49.7072 9.43385 49.6352 9.43385C49.5631 9.43385 49.5091 9.40384 49.4731 9.34382C49.2931 9.0197 49.071 8.70758 48.8069 8.40747C48.5548 8.09536 48.2667 7.81926 47.9426 7.57917C47.6304 7.32708 47.2883 7.129 46.9162 6.98495C46.556 6.8409 46.1779 6.76887 45.7818 6.76887C45.6017 6.76887 45.4276 6.80489 45.2596 6.87691C45.0915 6.93693 44.9595 7.05098 44.8634 7.21904C44.7794 7.35109 44.7314 7.49514 44.7194 7.6512C44.7194 7.79525 44.7434 7.9393 44.7914 8.08335C44.8634 8.28743 44.9775 8.4735 45.1335 8.64156C45.2896 8.80962 45.4576 8.95367 45.6377 9.07372C45.8418 9.20577 46.0519 9.33781 46.2679 9.46986C46.496 9.58991 46.7181 9.70995 46.9342 9.83C47.1863 9.96204 47.4384 10.0941 47.6905 10.2261C47.9426 10.3582 48.1946 10.4902 48.4467 10.6223C48.7589 10.7903 49.095 10.9824 49.4551 11.1985C49.8272 11.4026 50.1814 11.6307 50.5175 11.8827C50.8536 12.1348 51.1537 12.4169 51.4178 12.7291C51.6819 13.0292 51.874 13.3593 51.994 13.7194C52.0541 13.8995 52.0961 14.0976 52.1201 14.3136C52.1561 14.8178 52.0721 15.286 51.868 15.7182C51.6759 16.1383 51.4058 16.5285 51.0577 16.8886C50.7336 17.2247 50.3674 17.4948 49.9593 17.6989C49.5631 17.903 49.143 18.065 48.6988 18.1851C48.2667 18.2931 47.8225 18.3651 47.3663 18.4011C46.9102 18.4492 46.46 18.4732 46.0158 18.4732C45.0795 18.4732 44.1612 18.3231 43.2608 18.023C42.3605 17.7109 41.5202 17.3147 40.7399 16.8346C40.6799 16.7986 40.6439 16.7565 40.6319 16.7085C40.6079 16.6605 40.6199 16.6125 40.6679 16.5645L42.4145 14.0976C42.4505 14.0375 42.4986 14.0075 42.5586 14.0075C42.6186 14.0075 42.6666 14.0255 42.7026 14.0615C42.9667 14.3497 43.2548 14.6258 43.567 14.8899C43.8791 15.1419 44.1972 15.37 44.5213 15.5741C44.8694 15.8022 45.2356 16.0123 45.6197 16.2043C46.0158 16.3964 46.412 16.5405 46.8081 16.6365C47.0722 16.6965 47.3603 16.7325 47.6725 16.7445C47.9966 16.7565 48.2787 16.6785 48.5188 16.5104C48.6388 16.4264 48.7348 16.3184 48.8069 16.1863C48.8549 16.1023 48.8789 16.0123 48.8789 15.9162C48.8789 15.8202 48.8669 15.7302 48.8429 15.6461C48.8069 15.4901 48.7408 15.346 48.6448 15.214C48.5608 15.0699 48.4647 14.9379 48.3567 14.8178C48.0686 14.5177 47.7205 14.2476 47.3123 14.0075C46.9162 13.7674 46.496 13.5334 46.0519 13.3053C45.6197 13.0772 45.1755 12.8551 44.7194 12.639C44.2752 12.4109 43.8551 12.1649 43.4589 11.9008C43.0748 11.6367 42.7326 11.3486 42.4325 11.0364C42.1324 10.7123 41.9163 10.3402 41.7843 9.92003C41.6402 9.51188 41.5982 9.08572 41.6583 8.64156C41.7183 8.18539 41.8743 7.77124 42.1264 7.3991C42.3785 7.01496 42.6846 6.68484 43.0448 6.40874C43.597 6.00059 44.2092 5.71249 44.8814 5.54442C45.5657 5.37636 46.2439 5.29233 46.9162 5.29233C47.7805 5.29233 48.5668 5.40037 49.275 5.61645C49.9953 5.83253 50.7276 6.14464 51.4718 6.55279C51.5199 6.5768 51.5559 6.61282 51.5799 6.66083L51.6339 6.64283ZM59.3803 16.6545V11.9368C59.3803 11.8287 59.3623 11.7027 59.3262 11.5586C59.3022 11.4146 59.2362 11.3125 59.1282 11.2525C59.0561 11.2165 58.9661 11.2045 58.8581 11.2165C58.75 11.2165 58.642 11.2345 58.534 11.2705C58.4259 11.3065 58.3179 11.3546 58.2098 11.4146C58.1138 11.4626 58.0298 11.5046 57.9577 11.5406C57.6576 11.7087 57.3815 11.9008 57.1294 12.1168V16.6725L57.6336 17.933C57.6576 17.993 57.6516 18.047 57.6156 18.095C57.5796 18.155 57.5316 18.1851 57.4716 18.1851H53.3661C53.306 18.1851 53.258 18.155 53.222 18.095C53.186 18.047 53.18 17.993 53.204 17.933L53.6722 16.7625V7.81326L53.096 6.85891C53.0599 6.81089 53.0539 6.75687 53.078 6.69685C53.09 6.64883 53.126 6.61282 53.186 6.58881L56.8954 5.54442C56.9434 5.53242 56.9974 5.54442 57.0574 5.58044C57.1054 5.61645 57.1294 5.66447 57.1294 5.72449V10.2982C57.3335 10.1301 57.5436 9.97405 57.7597 9.83C57.9757 9.67394 58.2038 9.52989 58.4439 9.39784C58.732 9.22977 59.0321 9.11573 59.3443 9.05571C59.6564 8.99569 59.9745 8.96568 60.2986 8.96568C61.0909 8.97768 61.7091 9.21177 62.1533 9.66794C62.5974 10.1241 62.8195 10.7483 62.8195 11.5406V16.6725L63.3237 17.933C63.3477 17.993 63.3417 18.047 63.3057 18.095C63.2697 18.155 63.2217 18.1851 63.1617 18.1851H59.0561C58.9961 18.1851 58.9481 18.155 58.9121 18.095C58.8761 18.047 58.8701 17.993 58.8941 17.933L59.3803 16.6545ZM73.9908 17.951C74.0148 18.011 74.0088 18.065 73.9728 18.113C73.9368 18.1731 73.8888 18.2031 73.8287 18.2031H70.2454C70.1134 18.2031 70.0473 18.137 70.0473 18.005V17.4468C69.6032 17.7829 69.129 18.029 68.6248 18.1851C68.1206 18.3291 67.5804 18.4011 67.0042 18.4011C66.6921 18.4011 66.38 18.3711 66.0679 18.3111C65.7678 18.2511 65.4857 18.155 65.2216 18.023C64.9575 17.8789 64.7174 17.7049 64.5013 17.5008C64.2852 17.2847 64.1172 17.0266 63.9971 16.7265C63.745 16.1143 63.715 15.5021 63.9071 14.8899C64.0992 14.2776 64.4113 13.7434 64.8434 13.2873C65.1676 12.9511 65.5337 12.669 65.9418 12.441C66.35 12.2009 66.7761 12.0088 67.2203 11.8647C67.6765 11.7207 68.1386 11.6187 68.6068 11.5586C69.087 11.4866 69.5552 11.4506 70.0113 11.4506H70.0654C70.0533 11.2825 70.0173 11.1205 69.9573 10.9644C69.9093 10.8084 69.8133 10.6823 69.6692 10.5863C69.3691 10.4062 69.033 10.3282 68.6608 10.3522C68.3007 10.3642 67.9346 10.4362 67.5624 10.5683C67.1903 10.7003 66.8302 10.8684 66.482 11.0725C66.1459 11.2645 65.8518 11.4506 65.5997 11.6307C65.5397 11.6667 65.4857 11.6787 65.4377 11.6667C65.3776 11.6547 65.3416 11.6187 65.3296 11.5586L64.5373 9.92003C64.5133 9.87201 64.5133 9.81799 64.5373 9.75797C64.5493 9.70995 64.5853 9.67394 64.6454 9.64993C65.0895 9.45786 65.6117 9.2958 66.2119 9.16375C66.8242 9.0317 67.4604 8.95367 68.1206 8.92967C68.7809 8.89365 69.4291 8.92366 70.0654 9.0197C70.7136 9.11573 71.2898 9.2958 71.794 9.5599C72.3102 9.82399 72.7243 10.1841 73.0364 10.6403C73.3606 11.0965 73.5226 11.6667 73.5226 12.3509V16.6725L73.9908 17.951ZM70.0473 13.0352C69.2911 13.1072 68.6668 13.4253 68.1747 13.9895C67.9706 14.2176 67.8025 14.4817 67.6705 14.7818C67.5384 15.0819 67.4844 15.388 67.5084 15.7001C67.5204 15.8322 67.5504 15.9522 67.5984 16.0603C67.6465 16.1683 67.7245 16.2584 67.8325 16.3304C68.0366 16.4624 68.2647 16.5044 68.5168 16.4564C68.7809 16.4084 69.003 16.3244 69.183 16.2043C69.4711 16.0123 69.6872 15.7722 69.8313 15.4841C69.9753 15.184 70.0473 14.8598 70.0473 14.5117V13.0352ZM75.4163 16.6545V11.4866L74.804 10.4782C74.768 10.4302 74.762 10.3762 74.786 10.3162C74.798 10.2682 74.8341 10.2321 74.8941 10.2081L75.5243 10.0101L78.5854 9.18176C78.6334 9.16975 78.6875 9.18176 78.7475 9.21777C78.7955 9.25378 78.8195 9.3018 78.8195 9.36182V10.0101C79.0236 9.81799 79.2517 9.64993 79.5038 9.50588C79.7559 9.36182 80.002 9.24178 80.242 9.14574C80.5181 9.04971 80.8002 8.98969 81.0883 8.96568C81.3765 8.92966 81.6586 8.95367 81.9347 9.0377C82.0187 9.06171 82.0607 9.12174 82.0607 9.21777V11.9368C82.0607 12.0208 82.0247 12.0808 81.9527 12.1168C81.8806 12.1528 81.8146 12.1408 81.7546 12.0808C81.5265 11.8407 81.2564 11.6727 80.9443 11.5766C80.6322 11.4806 80.3141 11.4626 79.9899 11.5226C79.7739 11.5586 79.5458 11.6487 79.3057 11.7927C79.0656 11.9248 78.9156 12.1108 78.8555 12.3509C78.8435 12.3869 78.8375 12.441 78.8375 12.513V16.6725L79.3417 17.933C79.3657 17.993 79.3597 18.047 79.3237 18.095C79.2877 18.155 79.2397 18.1851 79.1796 18.1851H75.0741C75.0141 18.1851 74.9661 18.155 74.9301 18.095C74.8941 18.047 74.8881 17.993 74.9121 17.933L75.4163 16.6545ZM87.4272 17.915C87.4512 17.975 87.4452 18.029 87.4092 18.077C87.3732 18.137 87.3252 18.1671 87.2652 18.1671H83.1597C83.0996 18.1671 83.0516 18.137 83.0156 18.077C82.9796 18.029 82.9736 17.975 82.9976 17.915L83.5018 16.6545V11.4866L82.8896 10.4782C82.8536 10.4302 82.8476 10.3762 82.8716 10.3162C82.8836 10.2682 82.9196 10.2321 82.9796 10.2081L83.6098 10.0101L86.671 9.18176C86.719 9.16975 86.773 9.18176 86.833 9.21777C86.881 9.25378 86.905 9.3018 86.905 9.36182V16.6725L87.4272 17.915ZM83.2857 6.76887C83.2857 6.51678 83.3337 6.28269 83.4298 6.06662C83.5258 5.83853 83.6579 5.64046 83.8259 5.4724C83.994 5.30434 84.186 5.17229 84.4021 5.07625C84.6302 4.98022 84.8703 4.9322 85.1224 4.9322H85.1404H85.1584C85.4105 4.9322 85.6446 4.98022 85.8607 5.07625C86.0887 5.17229 86.2868 5.30434 86.4549 5.4724C86.6229 5.64046 86.755 5.83853 86.851 6.06662C86.9471 6.28269 86.9951 6.51678 86.9951 6.76887C86.9951 7.02097 86.9471 7.26105 86.851 7.48914C86.755 7.70522 86.6229 7.89729 86.4549 8.06535C86.2988 8.23341 86.1067 8.36546 85.8787 8.46149C85.6626 8.55753 85.4285 8.60555 85.1764 8.60555H85.1584H85.1404C84.8883 8.60555 84.6482 8.55753 84.4201 8.46149C84.2041 8.36546 84.012 8.23341 83.8439 8.06535C83.6759 7.89729 83.5438 7.70522 83.4478 7.48914C83.3517 7.26105 83.3037 7.02097 83.3037 6.76887H83.2857ZM98.1042 17.951C98.1282 18.011 98.1222 18.065 98.0862 18.113C98.0501 18.1731 98.0021 18.2031 97.9421 18.2031H94.3588C94.2267 18.2031 94.1607 18.137 94.1607 18.005V17.4468C93.7166 17.7829 93.2424 18.029 92.7382 18.1851C92.234 18.3291 91.6938 18.4011 91.1176 18.4011C90.8055 18.4011 90.4934 18.3711 90.1813 18.3111C89.8812 18.2511 89.599 18.155 89.335 18.023C89.0709 17.8789 88.8308 17.7049 88.6147 17.5008C88.3986 17.2847 88.2305 17.0266 88.1105 16.7265C87.8584 16.1143 87.8284 15.5021 88.0205 14.8899C88.2125 14.2776 88.5247 13.7434 88.9568 13.2873C89.2809 12.9511 89.6471 12.669 90.0552 12.441C90.4634 12.2009 90.8895 12.0088 91.3337 11.8647C91.7899 11.7207 92.252 11.6187 92.7202 11.5586C93.2004 11.4866 93.6685 11.4506 94.1247 11.4506H94.1787C94.1667 11.2825 94.1307 11.1205 94.0707 10.9644C94.0227 10.8084 93.9266 10.6823 93.7826 10.5863C93.4825 10.4062 93.1463 10.3282 92.7742 10.3522C92.4141 10.3642 92.0479 10.4362 91.6758 10.5683C91.3037 10.7003 90.9435 10.8684 90.5954 11.0725C90.2593 11.2645 89.9652 11.4506 89.7131 11.6307C89.6531 11.6667 89.599 11.6787 89.551 11.6667C89.491 11.6547 89.455 11.6187 89.443 11.5586L88.6507 9.92003C88.6267 9.87201 88.6267 9.81799 88.6507 9.75797C88.6627 9.70995 88.6987 9.67394 88.7587 9.64993C89.2029 9.45786 89.7251 9.2958 90.3253 9.16375C90.9375 9.0317 91.5738 8.95367 92.234 8.92967C92.8943 8.89365 93.5425 8.92366 94.1787 9.0197C94.827 9.11573 95.4032 9.2958 95.9074 9.5599C96.4235 9.82399 96.8377 10.1841 97.1498 10.6403C97.4739 11.0965 97.636 11.6667 97.636 12.3509V16.6725L98.1042 17.951ZM94.1607 13.0352C93.4044 13.1072 92.7802 13.4253 92.288 13.9895C92.084 14.2176 91.9159 14.4817 91.7838 14.7818C91.6518 15.0819 91.5978 15.388 91.6218 15.7001C91.6338 15.8322 91.6638 15.9522 91.7118 16.0603C91.7598 16.1683 91.8379 16.2584 91.9459 16.3304C92.15 16.4624 92.3781 16.5044 92.6302 16.4564C92.8943 16.4084 93.1163 16.3244 93.2964 16.2043C93.5845 16.0123 93.8006 15.7722 93.9446 15.4841C94.0887 15.184 94.1607 14.8598 94.1607 14.5117V13.0352Z" fill="#601404"/>
<defs>
<clipPath id="clip0_885_2186">
<rect width="33.3333" height="40" fill="white" transform="translate(0.666748)"/>
</clipPath>
</defs>
</svg>
